<?xml version="1.0" encoding="UTF-8" standalone="no"?>
<!DOCTYPE svg PUBLIC "-//W3C//DTD SVG 1.1//EN" "http://www.w3.org/Graphics/SVG/1.1/DTD/svg11.dtd">
<svg width="100%" height="100%" viewBox="0 0 455 742" version="1.1" xmlns="http://www.w3.org/2000/svg" xmlns:xlink="http://www.w3.org/1999/xlink" xml:space="preserve" xmlns:serif="http://www.serif.com/" style="fill-rule:evenodd;clip-rule:evenodd;stroke-linejoin:round;stroke-miterlimit:2;">
    <g transform="matrix(1,0,0,1,-1104.43,-98.9006)">
        <g transform="matrix(1,0,0,1,0,-21)">
            <g transform="matrix(0.826066,0,0,0.826066,558.862,67.5601)">
                <text x="699.994px" y="959.355px" style="font-family:'FasterOne-Regular', 'Faster One';font-size:70.253px;">ZERO TO 100</text>
            </g>
        </g>
        <g transform="matrix(1,0,0,1,0,-21)">
            <g transform="matrix(1,0,0,1,981.837,91.9995)">
                <g>
                    <path d="M390.32,479.36C386.398,492.801 375.761,502.88 362.32,507.36C358.398,508.481 353.922,509.04 350,509.04C331.52,509.04 315.281,497.278 309.68,479.36C304.078,460.321 299.039,441.282 294.559,421.68C287.278,424.481 280,427.281 272.719,429.52C276.641,448.559 281.68,467.598 287.84,486.079C298.481,520.239 334.879,539.841 369.602,529.2C390.321,523.039 406.563,506.802 412.723,486.079C418.325,467.599 423.364,448.559 427.844,429.52C420.563,427.281 413.285,424.48 406.004,421.68C400.961,440.719 395.922,460.321 390.32,479.36Z" style="fill:url(#_Linear1);fill-rule:nonzero;"/>
                    <path d="M259.84,347.76C260.961,359.522 262.641,371.28 264.321,383.041C271.602,380.24 279.441,377.439 286.719,374.643C286.16,370.721 285.597,366.803 285.039,363.444C276.64,358.397 268.238,352.799 259.84,347.76Z" style="fill:url(#_Linear2);fill-rule:nonzero;"/>
                    <path d="M412.16,73.922C401.519,39.762 365.121,20.16 330.398,30.801C309.679,36.961 293.437,53.199 287.277,73.922C267.117,138.883 256.476,208.322 256.476,280.002L256.476,288.4C264.316,294.002 272.156,299.599 279.996,305.201C279.437,296.803 279.437,288.4 279.437,280.002C279.437,211.682 289.515,145.042 309.117,80.642C313.039,67.201 323.676,57.122 337.117,52.642C341.039,51.521 345.516,50.963 349.437,50.963C367.917,50.963 384.156,62.725 389.757,80.643C409.359,145.041 419.437,211.683 419.437,280.003C419.437,311.925 417.199,343.843 412.719,374.644C420,377.445 427.278,380.245 435.117,383.042C440.156,349.44 442.398,315.28 442.398,280.002C442.96,208.322 432.32,138.882 412.16,73.922Z" style="fill:url(#_Linear3);fill-rule:nonzero;"/>
                    <path d="M245.28,294.56C213.921,270.482 184.241,244.162 157.358,215.599C147.839,205.521 143.917,191.521 147.28,177.521C148.401,173.599 149.518,169.681 151.761,165.759C161.28,149.521 179.202,141.681 197.683,145.599C217.285,150.08 236.324,155.118 254.804,161.279C255.925,153.439 257.604,146.158 259.284,138.318C240.804,132.158 221.764,127.119 202.725,122.638C167.444,114.798 132.725,136.638 124.327,171.919C119.288,193.2 125.448,215.04 140.007,230.72C171.366,264.88 207.206,296.24 245.847,323.681C263.769,336.56 282.808,348.88 302.968,360.079C305.206,361.759 308.007,362.88 310.249,364.001C319.21,360.079 328.171,356.161 336.569,351.681C329.288,347.759 322.01,343.841 314.729,339.361C290.639,326.482 267.678,310.802 245.28,294.56Z" style="fill:url(#_Linear4);fill-rule:nonzero;"/>
                    <path d="M403.76,203.84C401.522,202.16 398.721,201.039 396.479,199.36C366.241,182 334.877,166.88 303.518,154.558C301.838,162.398 300.717,170.238 299.596,178.079C328.717,189.841 357.276,203.841 384.717,219.52C391.998,224 399.276,227.918 406.557,232.398C405.998,222.879 404.877,213.359 403.76,203.839L403.76,203.84Z" style="fill:url(#_Linear5);fill-rule:nonzero;"/>
                    <path d="M542.64,344.96C552.16,355.038 556.081,369.038 552.718,383.038C551.597,386.96 550.48,390.878 548.238,394.8C538.718,411.038 520.796,418.878 502.315,414.96C463.674,405.999 426.155,394.241 389.755,378.562C380.795,383.601 372.396,388.082 363.435,392.562C407.115,412.722 451.915,427.281 497.275,437.921C532.556,445.761 567.276,423.921 575.674,388.64C580.713,367.359 574.552,345.519 559.994,329.839C528.635,295.679 492.795,264.319 454.154,236.878C454.712,246.956 455.275,256.48 455.275,266.558C486.076,289.519 515.759,315.839 542.638,344.96L542.64,344.96Z" style="fill:url(#_Linear6);fill-rule:nonzero;"/>
                    <path d="M403.76,356.16C404.881,346.641 405.998,337.121 406.561,327.039C399.28,331.52 392.002,336 384.721,339.918C325.92,374.641 263.201,399.281 197.681,414.398C184.24,417.757 170.24,413.839 159.603,404.32C156.243,401.519 154.001,398.16 151.763,394.801C142.244,378.563 145.044,358.961 157.365,345.52C170.806,330.961 184.806,316.961 199.924,303.52C193.763,298.48 188.162,293.442 182.002,288.399C167.443,301.84 153.443,315.278 140.561,329.84C115.92,356.16 117.6,397.602 143.92,422.238C159.604,435.679 182.002,441.84 202.721,436.8C269.362,421.679 334.321,396.48 396.481,360.64C399.282,359.518 401.52,357.839 403.762,356.159L403.76,356.16Z" style="fill:url(#_Linear7);fill-rule:nonzero;"/>
                    <path d="M389.76,182C393.119,180.32 397.041,179.199 400.401,177.52C399.28,169.68 397.6,161.839 396.479,153.999C385.28,158.48 374.639,162.96 363.44,167.999C372.397,172.48 381.358,177.519 389.76,181.999L389.76,182Z" style="fill:url(#_Linear8);fill-rule:nonzero;"/>
                    <path d="M310.8,194.88C308.562,196.001 305.761,197.681 303.519,198.802C301.281,200.482 298.48,201.603 296.238,203.282C295.116,212.802 293.999,222.321 293.437,232.403C300.718,227.923 307.996,223.443 315.277,219.524C322.558,215.044 329.836,211.126 337.117,207.204C328.16,203.283 319.762,198.802 310.801,194.88L310.8,194.88Z" style="fill:url(#_Linear9);fill-rule:nonzero;"/>
                    <path d="M246.4,235.76C236.881,242.479 227.361,249.76 217.841,257.041C224.001,262.08 230.161,267.119 236.321,272.162C239.122,269.924 242.481,267.681 245.282,265.443C245.282,255.92 245.84,245.838 246.399,235.759L246.4,235.76Z" style="fill:url(#_Linear10);fill-rule:nonzero;"/>
                    <path d="M463.68,287.28C460.879,289.518 457.52,291.761 454.719,293.999C454.719,304.077 454.161,313.601 453.598,323.679C463.118,316.96 472.637,309.679 482.157,302.398C476.001,297.359 469.841,292.32 463.68,287.281L463.68,287.28Z" style="fill:url(#_Linear11);fill-rule:nonzero;"/>
                    <path d="M502.32,145.6C515.761,142.799 529.761,146.159 540.398,155.678C543.757,158.479 546,161.838 548.238,165.198C557.757,181.436 554.957,201.038 542.636,214.479C529.195,229.038 515.195,243.038 500.077,256.479C506.237,261.518 511.839,266.556 517.999,271.6C532.558,258.159 546.558,244.72 559.44,230.72C584.081,204.401 582.401,162.958 556.081,138.323C540.397,124.318 517.999,118.158 497.28,123.197C478.241,127.678 459.76,132.717 440.721,138.878C442.401,146.717 443.522,153.999 445.201,161.839C463.678,155.678 483.279,150.077 502.318,145.601L502.32,145.6Z" style="fill:url(#_Linear12);fill-rule:nonzero;"/>
                </g>
            </g>
        </g>
        <g transform="matrix(1,0,0,1,0,-21)">
            <g transform="matrix(0.946183,0,0,0.946183,431.676,588.133)">
                <text x="701.129px" y="203.871px" style="font-family:'HYPERLOOP';font-weight:700;font-size:167.526px;fill:rgb(208,51,0);">Lps</text>
            </g>
        </g>
    </g>
    <defs>
        <linearGradient id="_Linear1" x1="0" y1="0" x2="1" y2="0" gradientUnits="userSpaceOnUse" gradientTransform="matrix(2.9352e-14,479.355,-479.355,2.9352e-14,349.448,36.3313)"><stop offset="0" style="stop-color:rgb(208,51,0);stop-opacity:1"/><stop offset="1" style="stop-color:rgb(115,28,0);stop-opacity:1"/></linearGradient>
        <linearGradient id="_Linear2" x1="0" y1="0" x2="1" y2="0" gradientUnits="userSpaceOnUse" gradientTransform="matrix(2.9352e-14,479.355,-479.355,2.9352e-14,349.448,36.3313)"><stop offset="0" style="stop-color:rgb(208,51,0);stop-opacity:1"/><stop offset="1" style="stop-color:rgb(115,28,0);stop-opacity:1"/></linearGradient>
        <linearGradient id="_Linear3" x1="0" y1="0" x2="1" y2="0" gradientUnits="userSpaceOnUse" gradientTransform="matrix(2.9352e-14,479.355,-479.355,2.9352e-14,349.448,36.3313)"><stop offset="0" style="stop-color:rgb(208,51,0);stop-opacity:1"/><stop offset="1" style="stop-color:rgb(115,28,0);stop-opacity:1"/></linearGradient>
        <linearGradient id="_Linear4" x1="0" y1="0" x2="1" y2="0" gradientUnits="userSpaceOnUse" gradientTransform="matrix(2.9352e-14,479.355,-479.355,2.9352e-14,349.448,36.3313)"><stop offset="0" style="stop-color:rgb(208,51,0);stop-opacity:1"/><stop offset="1" style="stop-color:rgb(115,28,0);stop-opacity:1"/></linearGradient>
        <linearGradient id="_Linear5" x1="0" y1="0" x2="1" y2="0" gradientUnits="userSpaceOnUse" gradientTransform="matrix(2.9352e-14,479.355,-479.355,2.9352e-14,349.448,36.3313)"><stop offset="0" style="stop-color:rgb(208,51,0);stop-opacity:1"/><stop offset="1" style="stop-color:rgb(115,28,0);stop-opacity:1"/></linearGradient>
        <linearGradient id="_Linear6" x1="0" y1="0" x2="1" y2="0" gradientUnits="userSpaceOnUse" gradientTransform="matrix(2.9352e-14,479.355,-479.355,2.9352e-14,349.448,36.3313)"><stop offset="0" style="stop-color:rgb(208,51,0);stop-opacity:1"/><stop offset="1" style="stop-color:rgb(115,28,0);stop-opacity:1"/></linearGradient>
        <linearGradient id="_Linear7" x1="0" y1="0" x2="1" y2="0" gradientUnits="userSpaceOnUse" gradientTransform="matrix(2.9352e-14,479.355,-479.355,2.9352e-14,349.448,36.3313)"><stop offset="0" style="stop-color:rgb(208,51,0);stop-opacity:1"/><stop offset="1" style="stop-color:rgb(115,28,0);stop-opacity:1"/></linearGradient>
        <linearGradient id="_Linear8" x1="0" y1="0" x2="1" y2="0" gradientUnits="userSpaceOnUse" gradientTransform="matrix(2.9352e-14,479.355,-479.355,2.9352e-14,349.448,36.3313)"><stop offset="0" style="stop-color:rgb(208,51,0);stop-opacity:1"/><stop offset="1" style="stop-color:rgb(115,28,0);stop-opacity:1"/></linearGradient>
        <linearGradient id="_Linear9" x1="0" y1="0" x2="1" y2="0" gradientUnits="userSpaceOnUse" gradientTransform="matrix(2.9352e-14,479.355,-479.355,2.9352e-14,349.448,36.3313)"><stop offset="0" style="stop-color:rgb(208,51,0);stop-opacity:1"/><stop offset="1" style="stop-color:rgb(115,28,0);stop-opacity:1"/></linearGradient>
        <linearGradient id="_Linear10" x1="0" y1="0" x2="1" y2="0" gradientUnits="userSpaceOnUse" gradientTransform="matrix(2.9352e-14,479.355,-479.355,2.9352e-14,349.448,36.3313)"><stop offset="0" style="stop-color:rgb(208,51,0);stop-opacity:1"/><stop offset="1" style="stop-color:rgb(115,28,0);stop-opacity:1"/></linearGradient>
        <linearGradient id="_Linear11" x1="0" y1="0" x2="1" y2="0" gradientUnits="userSpaceOnUse" gradientTransform="matrix(2.9352e-14,479.355,-479.355,2.9352e-14,349.448,36.3313)"><stop offset="0" style="stop-color:rgb(208,51,0);stop-opacity:1"/><stop offset="1" style="stop-color:rgb(115,28,0);stop-opacity:1"/></linearGradient>
        <linearGradient id="_Linear12" x1="0" y1="0" x2="1" y2="0" gradientUnits="userSpaceOnUse" gradientTransform="matrix(2.9352e-14,479.355,-479.355,2.9352e-14,349.448,36.3313)"><stop offset="0" style="stop-color:rgb(208,51,0);stop-opacity:1"/><stop offset="1" style="stop-color:rgb(115,28,0);stop-opacity:1"/></linearGradient>
    </defs>
</svg>
